<?xml version="1.0" encoding="UTF-8"?>
<svg width="32" height="32" viewBox="0 0 32 32" xmlns="http://www.w3.org/2000/svg">
  <defs>
    <linearGradient id="faviconGradient" x1="0%" y1="0%" x2="100%" y2="100%">
      <stop offset="0%" style="stop-color:#3b82f6;stop-opacity:1" />
      <stop offset="100%" style="stop-color:#2563eb;stop-opacity:1" />
    </linearGradient>
  </defs>
  
  <!-- Left brace { -->
  <path d="M 10 6 C 10 6, 8 6, 8 8 L 8 12 C 8 13, 6 13, 6 14 C 6 15, 8 15, 8 16 L 8 20 C 8 22, 10 22, 10 22" 
        stroke="url(#faviconGradient)" 
        stroke-width="2" 
        stroke-linecap="round" 
        stroke-linejoin="round" 
        fill="none"/>
  
  <!-- Right brace } -->
  <path d="M 22 6 C 22 6, 24 6, 24 8 L 24 12 C 24 13, 26 13, 26 14 C 26 15, 24 15, 24 16 L 24 20 C 24 22, 22 22, 22 22" 
        stroke="url(#faviconGradient)" 
        stroke-width="2" 
        stroke-linecap="round" 
        stroke-linejoin="round" 
        fill="none"/>
  
  <!-- Center dots -->
  <circle cx="16" cy="11" r="1.2" fill="url(#faviconGradient)"/>
  <circle cx="16" cy="16" r="1.2" fill="url(#faviconGradient)"/>
  <circle cx="16" cy="21" r="1.2" fill="url(#faviconGradient)"/>
</svg>

