<?xml version="1.0" encoding="UTF-8"?>
<svg width="40" height="40" viewBox="0 0 40 40" xmlns="http://www.w3.org/2000/svg">
  <defs>
    <linearGradient id="logoGradient" x1="0%" y1="0%" x2="100%" y2="100%">
      <stop offset="0%" style="stop-color:#3b82f6;stop-opacity:1" />
      <stop offset="100%" style="stop-color:#2563eb;stop-opacity:1" />
    </linearGradient>
  </defs>
  
  <!-- Background circle -->
  <circle cx="20" cy="20" r="18" fill="url(#logoGradient)" opacity="0.1"/>
  
  <!-- Left brace { -->
  <path d="M 14 10 C 14 10, 12 10, 12 12 L 12 16 C 12 17, 10 17, 10 18 C 10 19, 12 19, 12 20 L 12 24 C 12 26, 14 26, 14 26" 
        stroke="url(#logoGradient)" 
        stroke-width="2.5" 
        stroke-linecap="round" 
        stroke-linejoin="round" 
        fill="none"/>
  
  <!-- Right brace } -->
  <path d="M 26 10 C 26 10, 28 10, 28 12 L 28 16 C 28 17, 30 17, 30 18 C 30 19, 28 19, 28 20 L 28 24 C 28 26, 26 26, 26 26" 
        stroke="url(#logoGradient)" 
        stroke-width="2.5" 
        stroke-linecap="round" 
        stroke-linejoin="round" 
        fill="none"/>
  
  <!-- Center dots (JSON structure hint) -->
  <circle cx="20" cy="15" r="1.5" fill="url(#logoGradient)"/>
  <circle cx="20" cy="20" r="1.5" fill="url(#logoGradient)"/>
  <circle cx="20" cy="25" r="1.5" fill="url(#logoGradient)"/>
</svg>

